<svg width="20" height="16" viewBox="0 0 20 16" fill="none" xmlns="http://www.w3.org/2000/svg">
<path d="M1.5 8H6.29032M1.5 8L3.02419 11.5H7.59677M1.5 8L3.02419 4.5H7.70565M6.29032 8L8.90323 1H13.6935M6.29032 8L7.59677 11.5M13.6935 1L12.3871 4.5M13.6935 1L15 4.5L13.6935 8M12.3871 4.5H7.70565M12.3871 4.5L13.6935 8M13.6935 15L15 11.5L13.6935 8M13.6935 15H8.90323L7.59677 11.5M13.6935 15L12.3871 11.5M7.59677 11.5H12.3871M7.59677 11.5L8.90323 8M12.3871 11.5L13.6935 8M8.90323 8L7.70565 4.5M8.90323 8H13.6935" stroke="white"/>
</svg>
