<svg width="24" height="24" viewBox="0 0 24 24" fill="none" xmlns="http://www.w3.org/2000/svg">
<path d="M10.4506 3.05L6.71063 7.71C5.86063 8.77 6.16063 10.13 7.37063 10.73L11.1006 12.6C11.5906 12.84 12.3906 12.84 12.8806 12.6L16.6106 10.73C17.8206 10.12 18.1206 8.76 17.2706 7.71L13.5406 3.05C12.7006 1.98 11.3006 1.98 10.4506 3.05Z" stroke="white" stroke-width="1.5" stroke-miterlimit="10" stroke-linecap="round" stroke-linejoin="round"/>
<path d="M12 2.29999V7.55999" stroke="white" stroke-width="1.5" stroke-miterlimit="10" stroke-linecap="round" stroke-linejoin="round"/>
<path d="M7.80078 10.71L12.0008 7.56L16.2008 10.71" stroke="white" stroke-width="1.5" stroke-miterlimit="10" stroke-linecap="round" stroke-linejoin="round"/>
<path d="M8.77206 14.43L10.3821 15.15C11.4121 15.61 12.5921 15.61 13.6321 15.15L15.2421 14.43C16.6821 13.79 18.0121 15.53 17.0121 16.75L13.5521 20.98C12.7021 22.02 11.3121 22.02 10.4521 20.98L7.00206 16.75C5.99206 15.53 7.32206 13.79 8.77206 14.43Z" stroke="white" stroke-width="1.5" stroke-miterlimit="10" stroke-linecap="round" stroke-linejoin="round"/>
</svg>
