<svg width="20" height="20" viewBox="0 0 20 20" fill="none" xmlns="http://www.w3.org/2000/svg">
<path d="M7.50033 1.66666H12.5003C16.667 1.66666 18.3337 3.33332 18.3337 7.49999V12.5C18.3337 16.6667 16.667 18.3333 12.5003 18.3333H7.50033C3.33366 18.3333 1.66699 16.6667 1.66699 12.5V7.49999C1.66699 3.33332 3.33366 1.66666 7.50033 1.66666Z" stroke="white" stroke-linecap="round" stroke-linejoin="round"/>
<path d="M7.1416 12.725L12.5916 7.27502" stroke="white" stroke-linecap="round" stroke-linejoin="round"/>
<path d="M7.48302 8.64167C8.04911 8.64167 8.508 8.18278 8.508 7.61668C8.508 7.05059 8.04911 6.59167 7.48302 6.59167C6.91693 6.59167 6.45801 7.05059 6.45801 7.61668C6.45801 8.18278 6.91693 8.64167 7.48302 8.64167Z" stroke="white" stroke-linecap="round" stroke-linejoin="round"/>
<path d="M12.9332 13.4083C13.4993 13.4083 13.9582 12.9494 13.9582 12.3833C13.9582 11.8172 13.4993 11.3583 12.9332 11.3583C12.3671 11.3583 11.9082 11.8172 11.9082 12.3833C11.9082 12.9494 12.3671 13.4083 12.9332 13.4083Z" stroke="white" stroke-linecap="round" stroke-linejoin="round"/>
</svg>
