<svg width="20" height="20" viewBox="0 0 20 20" fill="none" xmlns="http://www.w3.org/2000/svg">
<path d="M15.0334 11.2916C14.6834 11.6333 14.4834 12.125 14.5334 12.65C14.6084 13.55 15.4334 14.2083 16.3334 14.2083H17.9167V15.2C17.9167 16.925 16.5084 18.3333 14.7834 18.3333H5.21671C3.49171 18.3333 2.08337 16.925 2.08337 15.2V9.59165C2.08337 7.86665 3.49171 6.45831 5.21671 6.45831H14.7834C16.5084 6.45831 17.9167 7.86665 17.9167 9.59165V10.7917H16.2334C15.7667 10.7917 15.3417 10.975 15.0334 11.2916Z" stroke="white" stroke-linecap="round" stroke-linejoin="round"/>
<path d="M2.08337 10.3416V6.53336C2.08337 5.54169 2.69171 4.65832 3.61671 4.30832L10.2334 1.80832C11.2667 1.41666 12.375 2.18335 12.375 3.29168V6.45834" stroke="white" stroke-linecap="round" stroke-linejoin="round"/>
<path d="M18.7991 11.6418V13.3585C18.7991 13.8168 18.4324 14.1918 17.9657 14.2085H16.3324C15.4324 14.2085 14.6074 13.5501 14.5324 12.6501C14.4824 12.1251 14.6824 11.6335 15.0324 11.2918C15.3407 10.9751 15.7657 10.7918 16.2324 10.7918H17.9657C18.4324 10.8085 18.7991 11.1834 18.7991 11.6418Z" stroke="white" stroke-linecap="round" stroke-linejoin="round"/>
<path d="M5.83337 10H11.6667" stroke="white" stroke-linecap="round" stroke-linejoin="round"/>
</svg>
