<svg width="1171" height="742" viewBox="0 0 1171 742" fill="none" xmlns="http://www.w3.org/2000/svg">
<rect x="-181.131" y="-476.131" width="1534.26" height="1534.26" rx="767.131" stroke="white" stroke-opacity="0.02" stroke-width="1.73877"/>
<rect x="-34.0046" y="-329.004" width="1240.01" height="1240.01" rx="620.004" stroke="white" stroke-opacity="0.02" stroke-width="1.73877"/>
<rect x="101.352" y="-193.648" width="969.296" height="969.296" rx="484.648" stroke="white" stroke-opacity="0.04" stroke-width="1.73877"/>
<rect x="219.052" y="-75.9464" width="733.893" height="733.893" rx="366.947" stroke="white" stroke-opacity="0.06" stroke-width="1.73877"/>
<rect x="324.983" y="29.9845" width="522.031" height="522.031" rx="261.016" stroke="white" stroke-opacity="0.08" stroke-width="1.73877"/>
<rect x="413.26" y="118.26" width="345.48" height="345.48" rx="172.74" stroke="white" stroke-opacity="0.1" stroke-width="1.73877"/>
<rect x="489.764" y="194.766" width="192.468" height="192.468" rx="96.2341" stroke="white" stroke-opacity="0.12" stroke-width="1.73877"/>
<rect x="548.617" y="253.616" width="74.767" height="74.767" rx="37.3835" stroke="white" stroke-opacity="0.14" stroke-width="1.73877"/>
<path d="M573.801 281.089H593.855C596.26 281.089 598.202 283.031 598.202 285.436V290.246" stroke="white" stroke-miterlimit="10" stroke-linecap="round" stroke-linejoin="round"/>
<path d="M578.38 276.51L573.801 281.089L578.38 285.668" stroke="white" stroke-miterlimit="10" stroke-linecap="round" stroke-linejoin="round"/>
<path d="M598.202 300.911H578.148C575.742 300.911 573.801 298.969 573.801 296.564V291.753" stroke="white" stroke-miterlimit="10" stroke-linecap="round" stroke-linejoin="round"/>
<path d="M593.624 305.489L598.202 300.911L593.624 296.332" stroke="white" stroke-miterlimit="10" stroke-linecap="round" stroke-linejoin="round"/>
</svg>
